<svg xmlns="http://www.w3.org/2000/svg" viewBox="0 0 400 2000" preserveAspectRatio="none" fill="none">
<g stroke="#d4d4d4" stroke-width="7" stroke-linecap="round" stroke-linejoin="round" vector-effect="non-scaling-stroke">
<path d="M268.0,0 L270.25,6 L272.48,12 L274.64,18 L276.7,24 L278.66,30 L280.47,36 L282.12,42 L283.58,48 L284.83,54 L285.86,60 L286.66,66 L287.21,72 L287.51,78 L287.55,84 L287.32,90 L286.84,96 L286.11,102 L285.13,108 L283.93,114 L282.5,120 L280.87,126 L279.06,132 L277.09,138 L274.98,144 L272.77,150 L270.47,156 L268.12,162 L265.74,168 L263.36,174 L261.02,180 L258.73,186 L256.53,192 L254.45,198 L252.5,204 L250.71,210 L249.11,216 L247.71,222 L246.52,228 L245.57,234 L244.86,240 L244.39,246 L244.18,252 L244.21,258 L244.5,264 L245.03,270 L245.79,276 L246.77,282 L247.97,288 L249.35,294 L250.9,300 L252.6,306 L254.42,312 L256.33,318 L258.32,324 L260.35,330 L262.39,336 L264.41,342 L266.39,348 L268.3,354 L270.11,360 L271.79,366 L273.32,372 L274.68,378 L275.84,384 L276.79,390 L277.52,396 L278.0,402 L278.24,408 L278.22,414 L277.95,420 L277.41,426 L276.63,432 L275.59,438 L274.32,444 L272.82,450 L271.11,456 L269.21,462 L267.14,468 L264.93,474 L262.59,480 L260.15,486 L257.65,492 L255.1,498 L252.54,504 L250.0,510 L247.51,516 L245.09,522 L242.77,528 L240.57,534 L238.53,540 L236.66,546 L234.98,552 L233.51,558 L232.27,564 L231.26,570 L230.5,576 L229.99,582 L229.73,588 L229.73,594 L229.97,600 L230.46,606 L231.17,612 L232.11,618 L233.24,624 L234.56,630 L236.04,636 L237.65,642 L239.38,648 L241.19,654 L243.07,660 L244.97,666 L246.88,672 L248.76,678 L250.58,684 L252.32,690 L253.95,696 L255.44,702 L256.78,708 L257.93,714 L258.88,720 L259.62,726 L260.12,732 L260.39,738 L260.4,744 L260.16,750 L259.66,756 L258.9,762 L257.9,768 L256.65,774 L255.17,780 L253.48,786 L251.58,792 L249.51,798 L247.27,804 L244.9,810 L242.43,816 L239.86,822 L237.25,828 L234.6,834 L231.96,840 L229.35,846 L226.8,852 L224.34,858 L221.99,864 L219.78,870 L217.74,876 L215.87,882 L214.21,888 L212.77,894 L211.56,900 L210.59,906 L209.87,912 L209.41,918 L209.2,924 L209.24,930 L209.53,936 L210.06,942 L210.82,948 L211.79,954 L212.95,960 L214.29,966 L215.78,972 L217.39,978 L219.12,984 L220.91,990 L222.76,996 L224.62,1002 L226.48,1008 L228.29,1014 L230.04,1020 L231.7,1026 L233.23,1032 L234.62,1038 L235.85,1044 L236.88,1050 L237.71,1056 L238.32,1062 L238.69,1068 L238.82,1074 L238.69,1080 L238.31,1086 L237.68,1092 L236.79,1098 L235.66,1104 L234.3,1110 L232.71,1116 L230.91,1122 L228.92,1128 L226.76,1134 L224.46,1140 L222.03,1146 L219.5,1152 L216.91,1158 L214.28,1164 L211.63,1170 L209.0,1176 L206.42,1182 L203.91,1188 L201.5,1194 L199.22,1200 L197.09,1206 L195.13,1212 L193.37,1218 L191.82,1224 L190.49,1230 L189.41,1236 L188.57,1242 L187.98,1248 L187.65,1254 L187.58,1260 L187.76,1266 L188.19,1272 L188.85,1278 L189.73,1284 L190.82,1290 L192.09,1296 L193.54,1302 L195.12,1308 L196.83,1314 L198.63,1320 L200.49,1326 L202.39,1332 L204.3,1338 L206.19,1344 L208.02,1350 L209.78,1356 L211.44,1362 L212.97,1368 L214.34,1374 L215.54,1380 L216.54,1386 L217.33,1392 L217.89,1398 L218.22,1404 L218.3,1410 L218.13,1416 L217.7,1422 L217.02,1428 L216.1,1434 L214.93,1440 L213.54,1446 L211.93,1452 L210.12,1458 L208.13,1464 L205.98,1470 L203.7,1476 L201.31,1482 L198.83,1488 L196.31,1494 L193.75,1500 L191.2,1506 L188.68,1512 L186.21,1518 L183.84,1524 L181.58,1530 L179.46,1536 L177.5,1542 L175.73,1548 L174.16,1554 L172.81,1560 L171.69,1566 L170.82,1572 L170.2,1578 L169.84,1584 L169.74,1590 L169.89,1596 L170.29,1602 L170.94,1608 L171.82,1614 L172.91,1620 L174.21,1626 L175.68,1632 L177.32,1638 L179.08,1644 L180.96,1650 L182.92,1656 L184.93,1662 L186.97,1668 L189.01,1674 L191.01,1680 L192.95,1686 L194.81,1692 L196.55,1698 L198.15,1704 L199.59,1710 L200.85,1716 L201.91,1722 L202.75,1728 L203.35,1734 L203.72,1740 L203.84,1746 L203.71,1752 L203.33,1758 L202.69,1764 L201.82,1770 L200.71,1776 L199.38,1782 L197.84,1788 L196.12,1794 L194.22,1800 L192.18,1806 L190.01,1812 L187.75,1818 L185.42,1824 L183.06,1830 L180.67,1836 L178.31,1842 L175.99,1848 L173.74,1854 L171.6,1860 L169.58,1866 L167.71,1872 L166.02,1878 L164.53,1884 L163.24,1890 L162.19,1896 L161.37,1902 L160.81,1908 L160.5,1914 L160.45,1920 L160.66,1926 L161.13,1932 L161.84,1938 L162.8,1944 L163.98,1950 L165.38,1956 L166.96,1962 L168.72,1968 L170.63,1974 L172.66,1980 L174.8,1986 L177.0,1992 L179.25,1998" />
<path d="M338.86,0 L340.93,6 L342.89,12 L344.7,18 L346.34,24 L347.8,30 L349.05,36 L350.07,42 L350.86,48 L351.4,54 L351.69,60 L351.71,66 L351.48,72 L350.99,78 L350.25,84 L349.26,90 L348.04,96 L346.61,102 L344.98,108 L343.16,114 L341.19,120 L339.09,126 L336.88,132 L334.59,138 L332.24,144 L329.87,150 L327.51,156 L325.18,162 L322.91,168 L320.74,174 L318.68,180 L316.75,186 L315.0,192 L313.42,198 L312.05,204 L310.9,210 L309.98,216 L309.3,222 L308.87,228 L308.69,234 L308.76,240 L309.08,246 L309.65,252 L310.44,258 L311.46,264 L312.68,270 L314.09,276 L315.66,282 L317.38,288 L319.22,294 L321.16,300 L323.16,306 L325.2,312 L327.25,318 L329.28,324 L331.27,330 L333.18,336 L334.98,342 L336.66,348 L338.18,354 L339.53,360 L340.69,366 L341.63,372 L342.34,378 L342.81,384 L343.03,390 L343.0,396 L342.71,402 L342.16,408 L341.36,414 L340.31,420 L339.02,426 L337.51,432 L335.79,438 L333.88,444 L331.81,450 L329.59,456 L327.25,462 L324.81,468 L322.31,474 L319.77,480 L317.22,486 L314.69,492 L312.2,498 L309.8,504 L307.49,510 L305.32,516 L303.3,522 L301.45,528 L299.8,534 L298.36,540 L297.14,546 L296.17,552 L295.43,558 L294.95,564 L294.73,570 L294.75,576 L295.03,582 L295.54,588 L296.28,594 L297.24,600 L298.4,606 L299.74,612 L301.24,618 L302.87,624 L304.61,630 L306.44,636 L308.32,642 L310.24,648 L312.14,654 L314.02,660 L315.85,666 L317.58,672 L319.2,678 L320.69,684 L322.01,690 L323.15,696 L324.09,702 L324.8,708 L325.29,714 L325.53,720 L325.53,726 L325.26,732 L324.74,738 L323.97,744 L322.94,750 L321.68,756 L320.18,762 L318.47,768 L316.56,774 L314.47,780 L312.23,786 L309.85,792 L307.37,798 L304.8,804 L302.18,810 L299.54,816 L296.9,822 L294.3,828 L291.76,834 L289.31,840 L286.98,846 L284.78,852 L282.76,858 L280.91,864 L279.27,870 L277.85,876 L276.67,882 L275.72,888 L275.03,894 L274.59,900 L274.41,906 L274.48,912 L274.79,918 L275.34,924 L276.12,930 L277.11,936 L278.29,942 L279.64,948 L281.15,954 L282.78,960 L284.51,966 L286.31,972 L288.16,978 L290.02,984 L291.88,990 L293.69,996 L295.43,1002 L297.07,1008 L298.6,1014 L299.97,1020 L301.18,1026 L302.19,1032 L303.0,1038 L303.59,1044 L303.93,1050 L304.04,1056 L303.89,1062 L303.48,1068 L302.82,1074 L301.91,1080 L300.76,1086 L299.37,1092 L297.75,1098 L295.94,1104 L293.93,1110 L291.75,1116 L289.43,1122 L287.0,1128 L284.46,1134 L281.86,1140 L279.22,1146 L276.58,1152 L273.95,1158 L271.37,1164 L268.86,1170 L266.46,1176 L264.19,1182 L262.07,1188 L260.13,1194 L258.38,1200 L256.85,1206 L255.54,1212 L254.48,1218 L253.66,1224 L253.09,1230 L252.79,1236 L252.74,1242 L252.93,1248 L253.38,1254 L254.06,1260 L254.96,1266 L256.06,1272 L257.35,1278 L258.8,1284 L260.4,1290 L262.11,1296 L263.91,1302 L265.77,1308 L267.67,1314 L269.57,1320 L271.45,1326 L273.28,1332 L275.02,1338 L276.66,1344 L278.17,1350 L279.52,1356 L280.7,1362 L281.68,1368 L282.44,1374 L282.97,1380 L283.27,1386 L283.32,1392 L283.12,1398 L282.66,1404 L281.96,1410 L281.0,1416 L279.81,1422 L278.38,1428 L276.75,1434 L274.91,1440 L272.9,1446 L270.73,1452 L268.43,1458 L266.03,1464 L263.54,1470 L261.0,1476 L258.44,1482 L255.88,1488 L253.35,1494 L250.89,1500 L248.52,1506 L246.26,1512 L244.15,1518 L242.2,1524 L240.44,1530 L238.88,1536 L237.54,1542 L236.44,1548 L235.59,1554 L234.98,1560 L234.64,1566 L234.55,1572 L234.72,1578 L235.14,1584 L235.8,1590 L236.69,1596 L237.79,1602 L239.1,1608 L240.58,1614 L242.22,1620 L243.99,1626 L245.87,1632 L247.82,1638 L249.83,1644 L251.86,1650 L253.88,1656 L255.87,1662 L257.8,1668 L259.63,1674 L261.35,1680 L262.93,1686 L264.34,1692 L265.57,1698 L266.6,1704 L267.4,1710 L267.98,1716 L268.31,1722 L268.4,1728 L268.23,1734 L267.81,1740 L267.15,1746 L266.24,1752 L265.1,1758 L263.73,1764 L262.17,1770 L260.41,1776 L258.49,1782 L256.42,1788 L254.24,1794 L251.96,1800 L249.61,1806 L247.23,1812 L244.83,1818 L242.46,1824 L240.13,1830 L237.88,1836 L235.74,1842 L233.72,1848 L231.86,1854 L230.17,1860 L228.68,1866 L227.41,1872 L226.36,1878 L225.56,1884 L225.0,1890 L224.7,1896 L224.67,1902 L224.89,1908 L225.37,1914 L226.09,1920 L227.06,1926 L228.24,1932 L229.64,1938 L231.23,1944 L232.99,1950 L234.9,1956 L236.93,1962 L239.06,1968 L241.25,1974 L243.49,1980 L245.73,1986 L247.96,1992 L250.15,1998" />
<path d="M284.5,200.0 L286.5,202.14 L288.5,202.43 L290.5,200.62 L292.5,198.28 L294.5,197.42 L296.5,198.79 L298.5,201.21 L300.5,202.58 L302.5,201.72 L304.5,199.38 L306.5,197.57 L308.5,197.86 L310.5,200.0" />
<path d="M268.0,600.0 L270.0,602.14 L272.0,602.43 L274.0,600.62 L276.0,598.28 L278.0,597.42 L280.0,598.79 L282.0,601.21 L284.0,602.58 L286.0,601.72 L288.0,599.38 L290.0,597.57 L292.0,597.86 L294.0,600.0" />
<path d="M243.0,1000.0 L245.0,1002.14 L247.0,1002.43 L249.0,1000.62 L251.0,998.28 L253.0,997.42 L255.0,998.79 L257.0,1001.21 L259.0,1002.58 L261.0,1001.72 L263.0,999.38 L265.0,997.57 L267.0,997.86 L269.0,1000.0" />
<path d="M218.0,1400.0 L220.0,1402.14 L222.0,1402.43 L224.0,1400.62 L226.0,1398.28 L228.0,1397.42 L230.0,1398.79 L232.0,1401.21 L234.0,1402.58 L236.0,1401.72 L238.0,1399.38 L240.0,1397.57 L242.0,1397.86 L244.0,1400.0" />
<path d="M201.5,1800.0 L203.5,1802.14 L205.5,1802.43 L207.5,1800.62 L209.5,1798.28 L211.5,1797.42 L213.5,1798.79 L215.5,1801.21 L217.5,1802.58 L219.5,1801.72 L221.5,1799.38 L223.5,1797.57 L225.5,1797.86 L227.5,1800.0" />
</g>
</svg>
