<svg xmlns="http://www.w3.org/2000/svg" viewBox="0 0 400 2000" preserveAspectRatio="none" fill="none">
<g stroke="#d4d4d4" stroke-width="7" stroke-linecap="round" stroke-linejoin="round" vector-effect="non-scaling-stroke">
<path d="M275.0,0 L277.25,6 L279.46,12 L281.61,18 L283.65,24 L285.58,30 L287.36,36 L288.96,42 L290.38,48 L291.58,54 L292.55,60 L293.29,66 L293.77,72 L293.99,78 L293.94,84 L293.63,90 L293.06,96 L292.23,102 L291.15,108 L289.83,114 L288.28,120 L286.53,126 L284.6,132 L282.5,138 L280.25,144 L277.89,150 L275.45,156 L272.94,162 L270.4,168 L267.86,174 L265.34,180 L262.88,186 L260.5,192 L258.23,198 L256.1,204 L254.11,210 L252.31,216 L250.7,222 L249.31,228 L248.14,234 L247.21,240 L246.52,246 L246.07,252 L245.87,258 L245.92,264 L246.2,270 L246.72,276 L247.45,282 L248.39,288 L249.51,294 L250.79,300 L252.22,306 L253.76,312 L255.4,318 L257.1,324 L258.84,330 L260.59,336 L262.32,342 L264.0,348 L265.6,354 L267.1,360 L268.47,366 L269.68,372 L270.72,378 L271.56,384 L272.18,390 L272.57,396 L272.72,402 L272.62,408 L272.26,414 L271.64,420 L270.75,426 L269.61,432 L268.22,438 L266.58,444 L264.72,450 L262.64,456 L260.37,462 L257.92,468 L255.33,474 L252.61,480 L249.78,486 L246.89,492 L243.95,498 L241.0,504 L238.06,510 L235.16,516 L232.34,522 L229.61,528 L227.0,534 L224.55,540 L222.26,546 L220.16,552 L218.27,558 L216.6,564 L215.17,570 L213.97,576 L213.03,582 L212.34,588 L211.9,594 L211.7,600 L211.74,606 L212.01,612 L212.5,618 L213.18,624 L214.04,630 L215.07,636 L216.22,642 L217.49,648 L218.84,654 L220.25,660 L221.69,666 L223.13,672 L224.54,678 L225.89,684 L227.15,690 L228.3,696 L229.32,702 L230.17,708 L230.84,714 L231.31,720 L231.56,726 L231.58,732 L231.35,738 L230.87,744 L230.14,750 L229.14,756 L227.89,762 L226.39,768 L224.64,774 L222.67,780 L220.47,786 L218.07,792 L215.49,798 L212.75,804 L209.88,810 L206.89,816 L203.82,822 L200.69,828 L197.54,834 L194.38,840 L191.26,846 L188.2,852 L185.22,858 L182.35,864 L179.63,870 L177.06,876 L174.68,882 L172.5,888 L170.53,894 L168.8,900 L167.31,906 L166.07,912 L165.09,918 L164.35,924 L163.87,930 L163.64,936 L163.64,942 L163.88,948 L164.32,954 L164.96,960 L165.77,966 L166.73,972 L167.82,978 L169.02,984 L170.29,990 L171.61,996 L172.95,1002 L174.27,1008 L175.56,1014 L176.79,1020 L177.92,1026 L178.93,1032 L179.79,1038 L180.49,1044 L181.0,1050 L181.3,1056 L181.38,1062 L181.23,1068 L180.83,1074 L180.19,1080 L179.28,1086 L178.13,1092 L176.72,1098 L175.07,1104 L173.18,1110 L171.07,1116 L168.75,1122 L166.25,1128 L163.57,1134 L160.75,1140 L157.81,1146 L154.77,1152 L151.66,1158 L148.52,1164 L145.36,1170 L142.22,1176 L139.13,1182 L136.11,1188 L133.19,1194 L130.4,1200 L127.77,1206 L125.31,1212 L123.04,1218 L120.99,1224 L119.17,1230 L117.58,1236 L116.25,1242 L115.17,1248 L114.34,1254 L113.78,1260 L113.47,1266 L113.41,1272 L113.58,1278 L113.98,1284 L114.58,1290 L115.38,1296 L116.34,1302 L117.45,1308 L118.68,1314 L120.01,1320 L121.4,1326 L122.83,1332 L124.27,1338 L125.69,1344 L127.07,1350 L128.36,1356 L129.56,1362 L130.63,1368 L131.55,1374 L132.3,1380 L132.85,1386 L133.19,1392 L133.31,1398 L133.2,1404 L132.84,1410 L132.23,1416 L131.37,1422 L130.26,1428 L128.9,1434 L127.31,1440 L125.49,1446 L123.46,1452 L121.24,1458 L118.83,1464 L116.27,1470 L113.58,1476 L110.79,1482 L107.91,1488 L104.98,1494 L102.03,1500 L99.09,1506 L96.17,1512 L93.32,1518 L90.57,1524 L87.93,1530 L85.43,1536 L83.1,1542 L80.95,1548 L79.02,1554 L77.3,1560 L75.83,1566 L74.6,1572 L73.63,1578 L72.92,1584 L72.47,1590 L72.28,1596 L72.35,1602 L72.66,1608 L73.21,1614 L73.98,1620 L74.95,1626 L76.11,1632 L77.43,1638 L78.89,1644 L80.46,1650 L82.11,1656 L83.83,1662 L85.57,1668 L87.32,1674 L89.04,1680 L90.7,1686 L92.28,1692 L93.75,1698 L95.08,1704 L96.26,1710 L97.26,1716 L98.06,1722 L98.65,1728 L99.01,1734 L99.14,1740 L99.02,1746 L98.66,1752 L98.05,1758 L97.2,1764 L96.11,1770 L94.78,1776 L93.25,1782 L91.51,1788 L89.58,1794 L87.5,1800 L85.27,1806 L82.92,1812 L80.48,1818 L77.98,1824 L75.45,1830 L72.9,1836 L70.38,1842 L67.91,1848 L65.52,1854 L63.24,1860 L61.09,1866 L59.09,1872 L57.28,1878 L55.66,1884 L54.27,1890 L53.1,1896 L52.19,1902 L51.53,1908 L51.13,1914 L51.0,1920 L51.13,1926 L51.52,1932 L52.17,1938 L53.07,1944 L54.2,1950 L55.54,1956 L57.09,1962 L58.81,1968 L60.69,1974 L62.7,1980 L64.81,1986 L67.01,1992 L69.25,1998" />
<path d="M345.86,0 L347.93,6 L349.87,12 L351.67,18 L353.29,24 L354.72,30 L355.93,36 L356.92,42 L357.66,48 L358.15,54 L358.38,60 L358.34,66 L358.04,72 L357.47,78 L356.65,84 L355.57,90 L354.26,96 L352.73,102 L350.99,108 L349.07,114 L346.98,120 L344.75,126 L342.42,132 L339.99,138 L337.51,144 L335.0,150 L332.49,156 L330.0,162 L327.58,168 L325.23,174 L323.0,180 L320.91,186 L318.97,192 L317.21,198 L315.65,204 L314.3,210 L313.18,216 L312.3,222 L311.66,228 L311.26,234 L311.11,240 L311.21,246 L311.54,252 L312.1,258 L312.88,264 L313.86,270 L315.02,276 L316.34,282 L317.8,288 L319.38,294 L321.05,300 L322.78,306 L324.55,312 L326.32,318 L328.07,324 L329.76,330 L331.38,336 L332.89,342 L334.27,348 L335.49,354 L336.53,360 L337.37,366 L337.99,372 L338.38,378 L338.53,384 L338.42,390 L338.06,396 L337.43,402 L336.54,408 L335.39,414 L334.0,420 L332.36,426 L330.49,432 L328.42,438 L326.15,444 L323.7,450 L321.11,456 L318.4,462 L315.59,468 L312.71,474 L309.78,480 L306.85,486 L303.93,492 L301.05,498 L298.25,504 L295.55,510 L292.98,516 L290.55,522 L288.29,528 L286.23,534 L284.38,540 L282.74,546 L281.35,552 L280.19,558 L279.29,564 L278.64,570 L278.23,576 L278.07,582 L278.15,588 L278.45,594 L278.97,600 L279.69,606 L280.58,612 L281.63,618 L282.81,624 L284.1,630 L285.47,636 L286.9,642 L288.35,648 L289.79,654 L291.21,660 L292.56,666 L293.83,672 L294.98,678 L295.99,684 L296.84,690 L297.5,696 L297.96,702 L298.2,708 L298.2,714 L297.96,720 L297.47,726 L296.72,732 L295.71,738 L294.44,744 L292.92,750 L291.16,756 L289.17,762 L286.96,768 L284.56,774 L281.97,780 L279.22,786 L276.34,792 L273.35,798 L270.28,804 L267.16,810 L264.01,816 L260.86,822 L257.75,828 L254.69,834 L251.73,840 L248.88,846 L246.18,852 L243.63,858 L241.27,864 L239.12,870 L237.18,876 L235.47,882 L234.01,888 L232.8,894 L231.84,900 L231.13,906 L230.68,912 L230.47,918 L230.5,924 L230.75,930 L231.22,936 L231.87,942 L232.7,948 L233.68,954 L234.79,960 L235.99,966 L237.27,972 L238.59,978 L239.93,984 L241.25,990 L242.54,996 L243.75,1002 L244.87,1008 L245.87,1014 L246.72,1020 L247.4,1026 L247.89,1032 L248.17,1038 L248.23,1044 L248.05,1050 L247.63,1056 L246.95,1062 L246.02,1068 L244.84,1074 L243.41,1080 L241.73,1086 L239.82,1092 L237.68,1098 L235.34,1104 L232.82,1110 L230.12,1116 L227.28,1122 L224.32,1128 L221.27,1134 L218.16,1140 L215.0,1146 L211.84,1152 L208.7,1158 L205.61,1164 L202.59,1170 L199.68,1176 L196.9,1182 L194.27,1188 L191.82,1194 L189.57,1200 L187.53,1206 L185.72,1212 L184.15,1218 L182.83,1224 L181.77,1230 L180.96,1236 L180.41,1242 L180.12,1248 L180.07,1254 L180.26,1260 L180.66,1266 L181.28,1272 L182.08,1278 L183.05,1284 L184.16,1290 L185.39,1296 L186.71,1302 L188.1,1308 L189.52,1314 L190.95,1320 L192.36,1326 L193.71,1332 L194.99,1338 L196.17,1344 L197.21,1350 L198.1,1356 L198.82,1362 L199.34,1368 L199.65,1374 L199.73,1380 L199.58,1386 L199.19,1392 L198.54,1398 L197.64,1404 L196.49,1410 L195.1,1416 L193.47,1422 L191.62,1428 L189.55,1434 L187.3,1440 L184.86,1446 L182.27,1452 L179.56,1458 L176.73,1464 L173.83,1470 L170.89,1476 L167.92,1482 L164.96,1488 L162.03,1494 L159.17,1500 L156.41,1506 L153.76,1512 L151.26,1518 L148.93,1524 L146.79,1530 L144.85,1536 L143.14,1542 L141.67,1548 L140.45,1554 L139.48,1560 L138.78,1566 L138.33,1572 L138.15,1578 L138.22,1584 L138.53,1590 L139.08,1596 L139.85,1602 L140.82,1608 L141.97,1614 L143.28,1620 L144.73,1626 L146.29,1632 L147.93,1638 L149.63,1644 L151.35,1650 L153.08,1656 L154.77,1662 L156.4,1668 L157.95,1674 L159.38,1680 L160.68,1686 L161.81,1692 L162.77,1698 L163.53,1704 L164.07,1710 L164.39,1716 L164.47,1722 L164.3,1728 L163.89,1734 L163.23,1740 L162.33,1746 L161.19,1752 L159.82,1758 L158.24,1764 L156.45,1770 L154.49,1776 L152.36,1782 L150.09,1788 L147.71,1794 L145.23,1800 L142.7,1806 L140.14,1812 L137.57,1818 L135.02,1824 L132.53,1830 L130.12,1836 L127.81,1842 L125.65,1848 L123.64,1854 L121.81,1860 L120.19,1866 L118.78,1872 L117.61,1878 L116.69,1884 L116.02,1890 L115.62,1896 L115.48,1902 L115.61,1908 L116.0,1914 L116.64,1920 L117.52,1926 L118.64,1932 L119.97,1938 L121.5,1944 L123.21,1950 L125.07,1956 L127.06,1962 L129.15,1968 L131.31,1974 L133.52,1980 L135.75,1986 L137.97,1992 L140.15,1998" />
<path d="M288.3,200.0 L290.3,202.14 L292.3,202.43 L294.3,200.62 L296.3,198.28 L298.3,197.42 L300.3,198.79 L302.3,201.21 L304.3,202.58 L306.3,201.72 L308.3,199.38 L310.3,197.57 L312.3,197.86 L314.3,200.0" />
<path d="M249.7,600.0 L251.7,602.14 L253.7,602.43 L255.7,600.62 L257.7,598.28 L259.7,597.42 L261.7,598.79 L263.7,601.21 L265.7,602.58 L267.7,601.72 L269.7,599.38 L271.7,597.57 L273.7,597.86 L275.7,600.0" />
<path d="M191.5,1000.0 L193.5,1002.14 L195.5,1002.43 L197.5,1000.62 L199.5,998.28 L201.5,997.42 L203.5,998.79 L205.5,1001.21 L207.5,1002.58 L209.5,1001.72 L211.5,999.38 L213.5,997.57 L215.5,997.86 L217.5,1000.0" />
<path d="M133.3,1400.0 L135.3,1402.14 L137.3,1402.43 L139.3,1400.62 L141.3,1398.28 L143.3,1397.42 L145.3,1398.79 L147.3,1401.21 L149.3,1402.58 L151.3,1401.72 L153.3,1399.38 L155.3,1397.57 L157.3,1397.86 L159.3,1400.0" />
<path d="M94.7,1800.0 L96.7,1802.14 L98.7,1802.43 L100.7,1800.62 L102.7,1798.28 L104.7,1797.42 L106.7,1798.79 L108.7,1801.21 L110.7,1802.58 L112.7,1801.72 L114.7,1799.38 L116.7,1797.57 L118.7,1797.86 L120.7,1800.0" />
</g>
</svg>