<svg xmlns="http://www.w3.org/2000/svg" viewBox="0 0 400 2000" preserveAspectRatio="none" fill="none">
<g stroke="#d4d4d4" stroke-width="7" stroke-linecap="round" stroke-linejoin="round" vector-effect="non-scaling-stroke">
<path d="M287.0,0 L289.7,6 L292.36,12 L294.93,18 L297.39,24 L299.71,30 L301.85,36 L303.78,42 L305.48,48 L306.94,54 L308.12,60 L309.01,66 L309.59,72 L309.87,78 L309.83,84 L309.47,90 L308.8,96 L307.82,102 L306.54,108 L304.97,114 L303.14,120 L301.06,126 L298.75,132 L296.25,138 L293.58,144 L290.78,150 L287.87,156 L284.88,162 L281.86,168 L278.84,174 L275.85,180 L272.92,186 L270.1,192 L267.4,198 L264.87,204 L262.52,210 L260.39,216 L258.5,222 L256.86,228 L255.49,234 L254.4,240 L253.61,246 L253.11,252 L252.91,258 L253.01,264 L253.39,270 L254.05,276 L254.97,282 L256.13,288 L257.52,294 L259.1,300 L260.86,306 L262.76,312 L264.77,318 L266.86,324 L268.99,330 L271.14,336 L273.26,342 L275.32,348 L277.3,354 L279.15,360 L280.84,366 L282.35,372 L283.64,378 L284.7,384 L285.5,390 L286.03,396 L286.26,402 L286.19,408 L285.82,414 L285.13,420 L284.12,426 L282.81,432 L281.19,438 L279.29,444 L277.11,450 L274.68,456 L272.02,462 L269.14,468 L266.09,474 L262.89,480 L259.56,486 L256.15,492 L252.69,498 L249.21,504 L245.75,510 L242.34,516 L239.01,522 L235.8,528 L232.74,534 L229.86,540 L227.18,546 L224.73,552 L222.53,558 L220.6,564 L218.95,570 L217.59,576 L216.53,582 L215.77,588 L215.31,594 L215.14,600 L215.26,606 L215.66,612 L216.32,618 L217.21,624 L218.32,630 L219.62,636 L221.08,642 L222.68,648 L224.38,654 L226.15,660 L227.95,666 L229.75,672 L231.51,678 L233.21,684 L234.81,690 L236.27,696 L237.56,702 L238.66,708 L239.55,714 L240.19,720 L240.57,726 L240.67,732 L240.47,738 L239.98,744 L239.18,750 L238.06,756 L236.64,762 L234.92,768 L232.91,774 L230.61,780 L228.06,786 L225.26,792 L222.25,798 L219.05,804 L215.68,810 L212.18,816 L208.57,822 L204.9,828 L201.2,834 L197.5,840 L193.84,846 L190.24,852 L186.75,858 L183.4,864 L180.21,870 L177.22,876 L174.44,882 L171.91,888 L169.64,894 L167.64,900 L165.94,906 L164.54,912 L163.44,918 L162.64,924 L162.15,930 L161.96,936 L162.05,942 L162.41,948 L163.03,954 L163.88,960 L164.94,966 L166.18,972 L167.58,978 L169.09,984 L170.71,990 L172.37,996 L174.06,1002 L175.74,1008 L177.38,1014 L178.93,1020 L180.37,1026 L181.67,1032 L182.79,1038 L183.71,1044 L184.41,1050 L184.86,1056 L185.04,1062 L184.95,1068 L184.55,1074 L183.86,1080 L182.86,1086 L181.56,1092 L179.96,1098 L178.06,1104 L175.88,1110 L173.43,1116 L170.74,1122 L167.81,1128 L164.68,1134 L161.38,1140 L157.93,1146 L154.37,1152 L150.73,1158 L147.04,1164 L143.33,1170 L139.64,1176 L136.02,1182 L132.48,1188 L129.06,1194 L125.8,1200 L122.72,1206 L119.85,1212 L117.21,1218 L114.83,1224 L112.72,1230 L110.9,1236 L109.38,1242 L108.16,1248 L107.25,1254 L106.66,1260 L106.36,1266 L106.37,1272 L106.66,1278 L107.21,1284 L108.02,1290 L109.05,1296 L110.28,1302 L111.69,1308 L113.24,1314 L114.91,1320 L116.66,1326 L118.45,1332 L120.26,1338 L122.04,1344 L123.76,1350 L125.4,1356 L126.91,1362 L128.27,1368 L129.44,1374 L130.41,1380 L131.15,1386 L131.63,1392 L131.85,1398 L131.78,1404 L131.42,1410 L130.76,1416 L129.8,1422 L128.54,1428 L126.98,1434 L125.14,1440 L123.03,1446 L120.66,1452 L118.05,1458 L115.24,1464 L112.23,1470 L109.07,1476 L105.78,1482 L102.4,1488 L98.95,1494 L95.47,1500 L92.0,1506 L88.57,1512 L85.21,1518 L81.96,1524 L78.86,1530 L75.92,1536 L73.18,1542 L70.67,1548 L68.41,1554 L66.41,1560 L64.7,1566 L63.28,1572 L62.18,1578 L61.38,1584 L60.9,1590 L60.73,1596 L60.86,1602 L61.29,1608 L62.0,1614 L62.98,1620 L64.2,1626 L65.64,1632 L67.27,1638 L69.07,1644 L71.01,1650 L73.04,1656 L75.15,1662 L77.29,1668 L79.43,1674 L81.54,1680 L83.58,1686 L85.52,1692 L87.33,1698 L88.97,1704 L90.43,1710 L91.67,1716 L92.67,1722 L93.42,1728 L93.89,1734 L94.09,1740 L93.99,1746 L93.59,1752 L92.89,1758 L91.91,1764 L90.63,1770 L89.08,1776 L87.27,1782 L85.21,1788 L82.94,1794 L80.46,1800 L77.82,1806 L75.03,1812 L72.14,1818 L69.16,1824 L66.15,1830 L63.12,1836 L60.12,1842 L57.18,1848 L54.34,1854 L51.62,1860 L49.06,1866 L46.69,1872 L44.53,1878 L42.61,1884 L40.95,1890 L39.58,1896 L38.49,1902 L37.72,1908 L37.25,1914 L37.11,1920 L37.28,1926 L37.76,1932 L38.56,1938 L39.64,1944 L41.0,1950 L42.62,1956 L44.48,1962 L46.56,1968 L48.82,1974 L51.23,1980 L53.77,1986 L56.41,1992 L59.1,1998" />
<path d="M379.23,0 L381.72,6 L384.05,12 L386.21,18 L388.16,24 L389.88,30 L391.34,36 L392.53,42 L393.43,48 L394.02,54 L394.3,60 L394.27,66 L393.92,72 L393.25,78 L392.27,84 L391.0,90 L389.44,96 L387.62,102 L385.55,108 L383.26,114 L380.77,120 L378.12,126 L375.34,132 L372.45,138 L369.49,144 L366.5,150 L363.51,156 L360.56,162 L357.67,168 L354.89,174 L352.24,180 L349.75,186 L347.46,192 L345.38,198 L343.53,204 L341.95,210 L340.64,216 L339.61,222 L338.87,228 L338.43,234 L338.29,240 L338.44,246 L338.88,252 L339.59,258 L340.56,264 L341.77,270 L343.21,276 L344.84,282 L346.63,288 L348.57,294 L350.62,300 L352.74,306 L354.9,312 L357.07,318 L359.21,324 L361.3,330 L363.28,336 L365.14,342 L366.84,348 L368.36,354 L369.66,360 L370.72,366 L371.52,372 L372.04,378 L372.27,384 L372.19,390 L371.81,396 L371.11,402 L370.1,408 L368.78,414 L367.16,420 L365.25,426 L363.07,432 L360.63,438 L357.97,444 L355.1,450 L352.05,456 L348.85,462 L345.54,468 L342.14,474 L338.7,480 L335.24,486 L331.8,492 L328.41,498 L325.11,504 L321.94,510 L318.91,516 L316.07,522 L313.43,528 L311.02,534 L308.86,540 L306.97,546 L305.36,552 L304.04,558 L303.03,564 L302.31,570 L301.9,576 L301.78,582 L301.94,588 L302.38,594 L303.07,600 L304.0,606 L305.14,612 L306.47,618 L307.97,624 L309.59,630 L311.31,636 L313.09,642 L314.91,648 L316.72,654 L318.49,660 L320.19,666 L321.79,672 L323.25,678 L324.54,684 L325.63,690 L326.5,696 L327.13,702 L327.5,708 L327.58,714 L327.37,720 L326.86,726 L326.03,732 L324.9,738 L323.46,744 L321.72,750 L319.69,756 L317.38,762 L314.81,768 L312.0,774 L308.98,780 L305.76,786 L302.39,792 L298.88,798 L295.28,804 L291.61,810 L287.91,816 L284.22,822 L280.57,828 L276.99,834 L273.52,840 L270.18,846 L267.02,852 L264.05,858 L261.3,864 L258.8,870 L256.56,876 L254.59,882 L252.92,888 L251.55,894 L250.48,900 L249.72,906 L249.26,912 L249.1,918 L249.22,924 L249.61,930 L250.25,936 L251.12,942 L252.2,948 L253.46,954 L254.87,960 L256.4,966 L258.02,972 L259.69,978 L261.39,984 L263.06,990 L264.69,996 L266.23,1002 L267.66,1008 L268.94,1014 L270.05,1020 L270.95,1026 L271.62,1032 L272.04,1038 L272.2,1044 L272.07,1050 L271.65,1056 L270.93,1062 L269.9,1068 L268.56,1074 L266.93,1080 L265.0,1086 L262.79,1092 L260.31,1098 L257.59,1104 L254.64,1110 L251.49,1116 L248.17,1122 L244.7,1128 L241.13,1134 L237.47,1140 L233.77,1146 L230.06,1152 L226.37,1158 L222.74,1164 L219.21,1170 L215.8,1176 L212.54,1182 L209.47,1188 L206.62,1194 L203.99,1200 L201.63,1206 L199.54,1212 L197.74,1218 L196.24,1224 L195.04,1230 L194.16,1236 L193.58,1242 L193.3,1248 L193.33,1254 L193.63,1260 L194.2,1266 L195.02,1272 L196.06,1278 L197.3,1284 L198.71,1290 L200.26,1296 L201.93,1302 L203.67,1308 L205.45,1314 L207.24,1320 L209.01,1326 L210.71,1332 L212.33,1338 L213.81,1344 L215.14,1350 L216.28,1356 L217.22,1362 L217.92,1368 L218.36,1374 L218.54,1380 L218.43,1386 L218.02,1392 L217.32,1398 L216.31,1404 L215.01,1410 L213.41,1416 L211.52,1422 L209.37,1428 L206.96,1434 L204.32,1440 L201.47,1446 L198.43,1452 L195.24,1458 L191.92,1464 L188.51,1470 L185.03,1476 L181.54,1482 L178.05,1488 L174.61,1494 L171.24,1500 L167.98,1506 L164.87,1512 L161.93,1518 L159.2,1524 L156.69,1530 L154.43,1536 L152.44,1542 L150.73,1548 L149.32,1554 L148.22,1560 L147.43,1566 L146.96,1572 L146.8,1578 L146.94,1584 L147.37,1590 L148.09,1596 L149.06,1602 L150.28,1608 L151.72,1614 L153.34,1620 L155.13,1626 L157.06,1632 L159.08,1638 L161.16,1644 L163.28,1650 L165.4,1656 L167.48,1662 L169.48,1668 L171.38,1674 L173.15,1680 L174.75,1686 L176.16,1692 L177.35,1698 L178.31,1704 L179.0,1710 L179.42,1716 L179.56,1722 L179.4,1728 L178.95,1734 L178.2,1740 L177.15,1746 L175.82,1752 L174.22,1758 L172.35,1764 L170.25,1770 L167.92,1776 L165.4,1782 L162.71,1788 L159.88,1794 L156.95,1800 L153.94,1806 L150.89,1812 L147.83,1818 L144.81,1824 L141.84,1830 L138.98,1836 L136.24,1842 L133.66,1848 L131.28,1854 L129.11,1860 L127.18,1866 L125.52,1872 L124.13,1878 L123.04,1884 L122.26,1890 L121.8,1896 L121.65,1902 L121.81,1908 L122.29,1914 L123.08,1920 L124.15,1926 L125.51,1932 L127.12,1938 L128.96,1944 L131.02,1950 L133.26,1956 L135.65,1962 L138.16,1968 L140.76,1974 L143.42,1980 L146.1,1986 L148.76,1992 L151.37,1998" />
<path d="M307.6,200.0 L309.6,202.23 L311.6,202.98 L313.6,201.76 L315.6,199.38 L317.6,197.4 L319.6,197.15 L321.6,198.78 L323.6,201.22 L325.6,202.85 L327.6,202.6 L329.6,200.62 L331.6,198.24 L333.6,197.02 L335.6,197.77 L337.6,200.0" />
<path d="M265.0,600.0 L267.0,602.23 L269.0,602.98 L271.0,601.76 L273.0,599.38 L275.0,597.4 L277.0,597.15 L279.0,598.78 L281.0,601.22 L283.0,602.85 L285.0,602.6 L287.0,600.62 L289.0,598.24 L291.0,597.02 L293.0,597.77 L295.0,600.0" />
<path d="M200.5,1000.0 L202.5,1002.23 L204.5,1002.98 L206.5,1001.76 L208.5,999.38 L210.5,997.4 L212.5,997.15 L214.5,998.78 L216.5,1001.22 L218.5,1002.85 L220.5,1002.6 L222.5,1000.62 L224.5,998.24 L226.5,997.02 L228.5,997.77 L230.5,1000.0" />
<path d="M136.0,1400.0 L138.0,1402.23 L140.0,1402.98 L142.0,1401.76 L144.0,1399.38 L146.0,1397.4 L148.0,1397.15 L150.0,1398.78 L152.0,1401.22 L154.0,1402.85 L156.0,1402.6 L158.0,1400.62 L160.0,1398.24 L162.0,1397.02 L164.0,1397.77 L166.0,1400.0" />
<path d="M93.4,1800.0 L95.4,1802.23 L97.4,1802.98 L99.4,1801.76 L101.4,1799.38 L103.4,1797.4 L105.4,1797.15 L107.4,1798.78 L109.4,1801.22 L111.4,1802.85 L113.4,1802.6 L115.4,1800.62 L117.4,1798.24 L119.4,1797.02 L121.4,1797.77 L123.4,1800.0" />
</g>
</svg>