<svg xmlns="http://www.w3.org/2000/svg" viewBox="0 0 400 2000" preserveAspectRatio="none" fill="none">
<g stroke="#d4d4d4" stroke-width="7" stroke-linecap="round" stroke-linejoin="round" vector-effect="non-scaling-stroke">
<path d="M268.0,0 L270.25,6 L272.46,12 L274.61,18 L276.65,24 L278.58,30 L280.36,36 L281.96,42 L283.38,48 L284.58,54 L285.55,60 L286.28,66 L286.76,72 L286.98,78 L286.94,84 L286.63,90 L286.05,96 L285.22,102 L284.14,108 L282.82,114 L281.27,120 L279.52,126 L277.59,132 L275.48,138 L273.24,144 L270.88,150 L268.43,156 L265.92,162 L263.38,168 L260.84,174 L258.32,180 L255.86,186 L253.48,192 L251.21,198 L249.07,204 L247.08,210 L245.28,216 L243.67,222 L242.27,228 L241.1,234 L240.17,240 L239.47,246 L239.03,252 L238.83,258 L238.87,264 L239.16,270 L239.67,276 L240.4,282 L241.33,288 L242.45,294 L243.73,300 L245.15,306 L246.7,312 L248.33,318 L250.03,324 L251.77,330 L253.52,336 L255.24,342 L256.92,348 L258.52,354 L260.01,360 L261.38,366 L262.59,372 L263.62,378 L264.46,384 L265.08,390 L265.47,396 L265.62,402 L265.51,408 L265.15,414 L264.52,420 L263.63,426 L262.49,432 L261.09,438 L259.45,444 L257.59,450 L255.51,456 L253.23,462 L250.79,468 L248.19,474 L245.46,480 L242.64,486 L239.74,492 L236.8,498 L233.84,504 L230.9,510 L228.0,516 L225.17,522 L222.44,528 L219.83,534 L217.37,540 L215.07,546 L212.97,552 L211.08,558 L209.41,564 L207.97,570 L206.77,576 L205.83,582 L205.13,588 L204.68,594 L204.48,600 L204.52,606 L204.79,612 L205.27,618 L205.95,624 L206.81,630 L207.83,636 L208.98,642 L210.25,648 L211.59,654 L213.0,660 L214.43,666 L215.87,672 L217.27,678 L218.62,684 L219.88,690 L221.02,696 L222.04,702 L222.88,708 L223.55,714 L224.02,720 L224.26,726 L224.27,732 L224.04,738 L223.56,744 L222.82,750 L221.82,756 L220.57,762 L219.06,768 L217.31,774 L215.33,780 L213.13,786 L210.73,792 L208.14,798 L205.4,804 L202.52,810 L199.53,816 L196.45,822 L193.32,828 L190.16,834 L187.0,840 L183.87,846 L180.81,852 L177.82,858 L174.95,864 L172.22,870 L169.65,876 L167.27,882 L165.08,888 L163.11,894 L161.38,900 L159.88,906 L158.64,912 L157.65,918 L156.91,924 L156.43,930 L156.19,936 L156.19,942 L156.41,948 L156.85,954 L157.49,960 L158.29,966 L159.25,972 L160.34,978 L161.53,984 L162.8,990 L164.11,996 L165.44,1002 L166.77,1008 L168.05,1014 L169.27,1020 L170.4,1026 L171.4,1032 L172.26,1038 L172.96,1044 L173.46,1050 L173.76,1056 L173.84,1062 L173.68,1068 L173.28,1074 L172.63,1080 L171.72,1086 L170.56,1092 L169.15,1098 L167.49,1104 L165.6,1110 L163.49,1116 L161.16,1122 L158.65,1128 L155.97,1134 L153.15,1140 L150.2,1146 L147.16,1152 L144.04,1158 L140.89,1164 L137.73,1170 L134.59,1176 L131.49,1182 L128.47,1188 L125.55,1194 L122.76,1200 L120.12,1206 L117.65,1212 L115.38,1218 L113.33,1224 L111.5,1230 L109.91,1236 L108.57,1242 L107.48,1248 L106.66,1254 L106.09,1260 L105.77,1266 L105.71,1272 L105.88,1278 L106.27,1284 L106.87,1290 L107.66,1296 L108.62,1302 L109.73,1308 L110.95,1314 L112.27,1320 L113.66,1326 L115.09,1332 L116.52,1338 L117.94,1344 L119.31,1350 L120.61,1356 L121.8,1362 L122.87,1368 L123.78,1374 L124.53,1380 L125.08,1386 L125.41,1392 L125.53,1398 L125.41,1404 L125.05,1410 L124.43,1416 L123.57,1422 L122.46,1428 L121.1,1434 L119.5,1440 L117.68,1446 L115.65,1452 L113.42,1458 L111.01,1464 L108.45,1470 L105.75,1476 L102.95,1482 L100.07,1488 L97.14,1494 L94.19,1500 L91.24,1506 L88.32,1512 L85.47,1518 L82.71,1524 L80.07,1530 L77.56,1536 L75.23,1542 L73.08,1548 L71.14,1554 L69.43,1560 L67.95,1566 L66.72,1572 L65.74,1578 L65.03,1584 L64.58,1590 L64.39,1596 L64.45,1602 L64.76,1608 L65.31,1614 L66.07,1620 L67.04,1626 L68.2,1632 L69.51,1638 L70.97,1644 L72.54,1650 L74.19,1656 L75.91,1662 L77.65,1668 L79.39,1674 L81.11,1680 L82.77,1686 L84.34,1692 L85.81,1698 L87.14,1704 L88.32,1710 L89.31,1716 L90.11,1722 L90.7,1728 L91.06,1734 L91.18,1740 L91.07,1746 L90.7,1752 L90.09,1758 L89.24,1764 L88.14,1770 L86.82,1776 L85.28,1782 L83.54,1788 L81.61,1794 L79.52,1800 L77.29,1806 L74.95,1812 L72.51,1818 L70.01,1824 L67.47,1830 L64.92,1836 L62.4,1842 L59.93,1848 L57.54,1854 L55.25,1860 L53.1,1866 L51.1,1872 L49.29,1878 L47.67,1884 L46.27,1890 L45.11,1896 L44.19,1902 L43.53,1908 L43.14,1914 L43.0,1920 L43.13,1926 L43.53,1932 L44.18,1938 L45.07,1944 L46.2,1950 L47.54,1956 L49.09,1962 L50.81,1968 L52.69,1974 L54.7,1980 L56.81,1986 L59.01,1992 L61.25,1998" />
<path d="M338.86,0 L340.93,6 L342.87,12 L344.67,18 L346.29,24 L347.72,30 L348.93,36 L349.92,42 L350.66,48 L351.15,54 L351.37,60 L351.34,66 L351.03,72 L350.47,78 L349.64,84 L348.57,90 L347.25,96 L345.72,102 L343.98,108 L342.06,114 L339.97,120 L337.74,126 L335.4,132 L332.98,138 L330.49,144 L327.98,150 L325.47,156 L322.98,162 L320.56,168 L318.21,174 L315.98,180 L313.88,186 L311.94,192 L310.18,198 L308.62,204 L307.27,210 L306.15,216 L305.26,222 L304.62,228 L304.22,234 L304.07,240 L304.17,246 L304.5,252 L305.06,258 L305.83,264 L306.81,270 L307.97,276 L309.29,282 L310.75,288 L312.32,294 L313.99,300 L315.72,306 L317.48,312 L319.25,318 L321.0,324 L322.69,330 L324.3,336 L325.81,342 L327.19,348 L328.4,354 L329.44,360 L330.28,366 L330.9,372 L331.29,378 L331.43,384 L331.32,390 L330.95,396 L330.32,402 L329.43,408 L328.28,414 L326.88,420 L325.24,426 L323.37,432 L321.29,438 L319.02,444 L316.58,450 L313.98,456 L311.26,462 L308.45,468 L305.56,474 L302.64,480 L299.7,486 L296.78,492 L293.9,498 L291.09,504 L288.39,510 L285.81,516 L283.38,522 L281.12,528 L279.06,534 L277.2,540 L275.56,546 L274.16,552 L273.0,558 L272.1,564 L271.44,570 L271.03,576 L270.87,582 L270.94,588 L271.24,594 L271.76,600 L272.47,606 L273.36,612 L274.4,618 L275.58,624 L276.86,630 L278.23,636 L279.65,642 L281.1,648 L282.54,654 L283.96,660 L285.31,666 L286.57,672 L287.71,678 L288.72,684 L289.57,690 L290.22,696 L290.68,702 L290.91,708 L290.91,714 L290.67,720 L290.17,726 L289.41,732 L288.4,738 L287.13,744 L285.61,750 L283.84,756 L281.85,762 L279.63,768 L277.22,774 L274.63,780 L271.88,786 L268.99,792 L266.0,798 L262.92,804 L259.8,810 L256.64,816 L253.49,822 L250.37,828 L247.32,834 L244.35,840 L241.5,846 L238.79,852 L236.24,858 L233.87,864 L231.71,870 L229.77,876 L228.06,882 L226.59,888 L225.38,894 L224.41,900 L223.7,906 L223.24,912 L223.03,918 L223.06,924 L223.31,930 L223.77,936 L224.42,942 L225.24,948 L226.22,954 L227.32,960 L228.51,966 L229.79,972 L231.11,978 L232.44,984 L233.76,990 L235.04,996 L236.25,1002 L237.37,1008 L238.36,1014 L239.2,1020 L239.88,1026 L240.36,1032 L240.64,1038 L240.69,1044 L240.51,1050 L240.08,1056 L239.41,1062 L238.47,1068 L237.29,1074 L235.85,1080 L234.16,1086 L232.25,1092 L230.11,1098 L227.77,1104 L225.23,1110 L222.53,1116 L219.69,1122 L216.73,1128 L213.67,1134 L210.55,1140 L207.39,1146 L204.23,1152 L201.08,1158 L197.98,1164 L194.96,1170 L192.05,1176 L189.26,1182 L186.63,1188 L184.18,1194 L181.92,1200 L179.88,1206 L178.06,1212 L176.49,1218 L175.17,1224 L174.1,1230 L173.29,1236 L172.74,1242 L172.44,1248 L172.38,1254 L172.57,1260 L172.97,1266 L173.58,1272 L174.38,1278 L175.34,1284 L176.45,1290 L177.68,1296 L178.99,1302 L180.38,1308 L181.79,1314 L183.22,1320 L184.62,1326 L185.97,1332 L187.25,1338 L188.42,1344 L189.46,1350 L190.35,1356 L191.06,1362 L191.58,1368 L191.88,1374 L191.96,1380 L191.81,1386 L191.41,1392 L190.76,1398 L189.85,1404 L188.7,1410 L187.31,1416 L185.68,1422 L183.82,1428 L181.75,1434 L179.49,1440 L177.05,1446 L174.46,1452 L171.74,1458 L168.91,1464 L166.01,1470 L163.06,1476 L160.08,1482 L157.12,1488 L154.19,1494 L151.33,1500 L148.56,1506 L145.91,1512 L143.41,1518 L141.07,1524 L138.92,1530 L136.99,1536 L135.27,1542 L133.8,1548 L132.57,1554 L131.6,1560 L130.9,1566 L130.45,1572 L130.26,1578 L130.33,1584 L130.64,1590 L131.19,1596 L131.95,1602 L132.92,1608 L134.07,1614 L135.38,1620 L136.82,1626 L138.38,1632 L140.02,1638 L141.71,1644 L143.43,1650 L145.15,1656 L146.84,1662 L148.47,1668 L150.02,1674 L151.45,1680 L152.74,1686 L153.88,1692 L154.83,1698 L155.59,1704 L156.13,1710 L156.44,1716 L156.52,1722 L156.35,1728 L155.94,1734 L155.28,1740 L154.37,1746 L153.23,1752 L151.86,1758 L150.28,1764 L148.49,1770 L146.52,1776 L144.39,1782 L142.12,1788 L139.74,1794 L137.26,1800 L134.73,1806 L132.16,1812 L129.59,1818 L127.04,1824 L124.55,1830 L122.14,1836 L119.83,1842 L117.66,1848 L115.65,1854 L113.83,1860 L112.2,1866 L110.8,1872 L109.62,1878 L108.7,1884 L108.03,1890 L107.63,1896 L107.49,1902 L107.61,1908 L108.0,1914 L108.64,1920 L109.53,1926 L110.64,1932 L111.98,1938 L113.51,1944 L115.21,1950 L117.07,1956 L119.06,1962 L121.15,1968 L123.31,1974 L125.52,1980 L127.75,1986 L129.97,1992 L132.15,1998" />
<path d="M281.2,200.0 L283.2,202.14 L285.2,202.43 L287.2,200.62 L289.2,198.28 L291.2,197.42 L293.2,198.79 L295.2,201.21 L297.2,202.58 L299.2,201.72 L301.2,199.38 L303.2,197.57 L305.2,197.86 L307.2,200.0" />
<path d="M242.5,600.0 L244.5,602.14 L246.5,602.43 L248.5,600.62 L250.5,598.28 L252.5,597.42 L254.5,598.79 L256.5,601.21 L258.5,602.58 L260.5,601.72 L262.5,599.38 L264.5,597.57 L266.5,597.86 L268.5,600.0" />
<path d="M184.0,1000.0 L186.0,1002.14 L188.0,1002.43 L190.0,1000.62 L192.0,998.28 L194.0,997.42 L196.0,998.79 L198.0,1001.21 L200.0,1002.58 L202.0,1001.72 L204.0,999.38 L206.0,997.57 L208.0,997.86 L210.0,1000.0" />
<path d="M125.5,1400.0 L127.5,1402.14 L129.5,1402.43 L131.5,1400.62 L133.5,1398.28 L135.5,1397.42 L137.5,1398.79 L139.5,1401.21 L141.5,1402.58 L143.5,1401.72 L145.5,1399.38 L147.5,1397.57 L149.5,1397.86 L151.5,1400.0" />
<path d="M86.8,1800.0 L88.8,1802.14 L90.8,1802.43 L92.8,1800.62 L94.8,1798.28 L96.8,1797.42 L98.8,1798.79 L100.8,1801.21 L102.8,1802.58 L104.8,1801.72 L106.8,1799.38 L108.8,1797.57 L110.8,1797.86 L112.8,1800.0" />
</g>
</svg>
