<svg xmlns="http://www.w3.org/2000/svg" viewBox="0 0 400 160" preserveAspectRatio="none">
  <g fill="#1d3129">
    <path d="M10 86C4 60 28 40 56 34c26-6 40 16 68 8s36-28 66-24c26 4 34 22 62 18s46-22 76-12c28 10 42 32 50 58 8 26-4 50-32 56-30 6-52-12-82-6s-42 16-72 12c-28-4-44-20-74-16-28 4-50 20-76 10C18 128 15 112 10 86Z"/>
    <ellipse cx="24" cy="20" rx="13" ry="8"/>
    <ellipse cx="120" cy="150" rx="17" ry="7"/>
    <ellipse cx="228" cy="10" rx="9" ry="6"/>
    <ellipse cx="318" cy="152" rx="11" ry="6"/>
    <ellipse cx="386" cy="34" rx="8" ry="10"/>
    <circle cx="66" cy="146" r="5"/>
    <circle cx="176" cy="16" r="4"/>
    <circle cx="290" cy="146" r="4"/>
    <circle cx="352" cy="14" r="6"/>
  </g>
</svg>
